{
  "accessors": [
    {
      "bufferView": 2,
      "componentType": 5126,
      "count": 65534,
      "max": [
        8.518085479736328,
        14.512744903564453,
        3.2779529094696045
      ],
      "min": [
        -5.880179405212402,
        -5.1124162673950195,
        -12.118427276611328
      ],
      "type": "VEC3"
    },
    {
      "bufferView": 2,
      "byteOffset": 786408,
      "componentType": 5126,
      "count": 65534,
      "max": [
        0.999896764755249,
        0.9998912215232849,
        0.9999721646308899
      ],
      "min": [
        -0.9999455809593201,
        -0.9999099373817444,
        -0.9999803900718689
      ],
      "type": "VEC3"
    },
    {
      "bufferView": 3,
      "componentType": 5126,
      "count": 65534,
      "max": [
        0.999989926815033,
        0.9999949932098389,
        0.9999880194664001,
        1.0
      ],
      "min": [
        -0.9999399781227112,
        -0.9999648928642273,
        -0.9999845027923584,
        -1.0
      ],
      "type": "VEC4"
    },
    {
      "bufferView": 1,
      "componentType": 5126,
      "count": 65534,
      "max": [
        0.9980469942092896,
        0.5818196535110474
      ],
      "min": [
        0.0019531074212864041,
        0.0019531354773789644
      ],
      "type": "VEC2"
    },
    {
      "bufferView": 1,
      "byteOffset": 524272,
      "componentType": 5126,
      "count": 65534,
      "max": [
        0.9980469942092896,
        0.5818196535110474
      ],
      "min": [
        0.0019531074212864041,
        0.0019531354773789644
      ],
      "type": "VEC2"
    },
    {
      "bufferView": 0,
      "componentType": 5125,
      "count": 370395,
      "type": "SCALAR"
    },
    {
      "bufferView": 2,
      "byteOffset": 1572816,
      "componentType": 5126,
      "count": 16151,
      "max": [
        8.518085479736328,
        14.434722900390625,
        3.2603375911712646
      ],
      "min": [
        -5.091609477996826,
        -3.24043345451355,
        -12.107519149780273
      ],
      "type": "VEC3"
    },
    {
      "bufferView": 2,
      "byteOffset": 1766628,
      "componentType": 5126,
      "count": 16151,
      "max": [
        0.9999534487724304,
        0.9998470544815063,
        0.9993853569030762
      ],
      "min": [
        -0.999459981918335,
        -0.9976740479469299,
        -0.9999111890792847
      ],
      "type": "VEC3"
    },
    {
      "bufferView": 3,
      "byteOffset": 1048544,
      "componentType": 5126,
      "count": 16151,
      "max": [
        0.9998948574066162,
        0.99993896484375,
        0.9999415278434753,
        1.0
      ],
      "min": [
        -0.9982642531394958,
        -0.9997749328613281,
        -0.9986889958381653,
        -1.0
      ],
      "type": "VEC4"
    },
    {
      "bufferView": 1,
      "byteOffset": 1048544,
      "componentType": 5126,
      "count": 16151,
      "max": [
        0.9960312843322754,
        0.5979391932487488
      ],
      "min": [
        0.0019531074212864041,
        0.024979494512081146
      ],
      "type": "VEC2"
    },
    {
      "bufferView": 1,
      "byteOffset": 1177752,
      "componentType": 5126,
      "count": 16151,
      "max": [
        0.9960312843322754,
        0.5979391932487488
      ],
      "min": [
        0.0019531074212864041,
        0.024979494512081146
      ],
      "type": "VEC2"
    },
    {
      "bufferView": 0,
      "byteOffset": 1481580,
      "componentType": 5125,
      "count": 68376,
      "type": "SCALAR"
    },
    {
      "bufferView": 2,
      "byteOffset": 1960440,
      "componentType": 5126,
      "count": 51812,
      "max": [
        2.1074423789978027,
        -0.6528447866439819,
        1.0727025270462036
      ],
      "min": [
        -1.249147653579712,
        -4.566992282867432,
        -1.3345311880111694
      ],
      "type": "VEC3"
    },
    {
      "bufferView": 2,
      "byteOffset": 2582184,
      "componentType": 5126,
      "count": 51812,
      "max": [
        0.9999951124191284,
        0.9999773502349854,
        0.999941349029541
      ],
      "min": [
        -0.9999657869338989,
        -0.9999762773513794,
        -0.9999964237213135
      ],
      "type": "VEC3"
    },
    {
      "bufferView": 3,
      "byteOffset": 1306960,
      "componentType": 5126,
      "count": 51812,
      "max": [
        0.9999940395355225,
        0.9999805688858032,
        0.9999794363975525,
        1.0
      ],
      "min": [
        -0.9999958872795105,
        -0.9999702572822571,
        -0.9999937415122986,
        1.0
      ],
      "type": "VEC4"
    },
    {
      "bufferView": 1,
      "byteOffset": 1306960,
      "componentType": 5126,
      "count": 51812,
      "max": [
        0.9980469346046448,
        0.9957526326179504
      ],
      "min": [
        0.0019531246507540345,
        0.0019531246507540345
      ],
      "type": "VEC2"
    },
    {
      "bufferView": 1,
      "byteOffset": 1721456,
      "componentType": 5126,
      "count": 51812,
      "max": [
        0.9980469346046448,
        0.9957526326179504
      ],
      "min": [
        0.0019531246507540345,
        0.0019531246507540345
      ],
      "type": "VEC2"
    },
    {
      "bufferView": 0,
      "byteOffset": 1755084,
      "componentType": 5125,
      "count": 292986,
      "type": "SCALAR"
    }
  ],
  "asset": {
    "extras": {
      "author": "alen60303 (https://sketchfab.com/alen60303)",
      "license": "CC-BY-4.0 (http://creativecommons.org/licenses/by/4.0/)",
      "source": "https://sketchfab.com/3d-models/abyssal-fangjaw-6530dcc45bfc4423bd23571407ad3e84",
      "title": "Abyssal Fangjaw"
    },
    "generator": "Sketchfab-15.46.0",
    "version": "2.0"
  },
  "bufferViews": [
    {
      "buffer": 0,
      "byteLength": 2927028,
      "name": "floatBufferViews",
      "target": 34963
    },
    {
      "buffer": 0,
      "byteLength": 2135952,
      "byteOffset": 2927028,
      "byteStride": 8,
      "name": "floatBufferViews",
      "target": 34962
    },
    {
      "buffer": 0,
      "byteLength": 3203928,
      "byteOffset": 5062980,
      "byteStride": 12,
      "name": "floatBufferViews",
      "target": 34962
    },
    {
      "buffer": 0,
      "byteLength": 2135952,
      "byteOffset": 8266908,
      "byteStride": 16,
      "name": "floatBufferViews",
      "target": 34962
    }
  ],
  "buffers": [
    {
      "byteLength": 10402860,
      "uri": "scene.bin"
    }
  ],
  "extensionsUsed": [
    "KHR_materials_specular"
  ],
  "images": [
    {
      "uri": "textures/Whale_Sketch1_baseColor.png"
    },
    {
      "uri": "textures/Whale_Sketch1_metallicRoughness.png"
    },
    {
      "uri": "textures/Whale_Sketch1_normal.png"
    },
    {
      "uri": "textures/PM3D_Cone3D2_baseColor.png"
    },
    {
      "uri": "textures/PM3D_Cone3D2_metallicRoughness.png"
    },
    {
      "uri": "textures/PM3D_Cone3D2_normal.png"
    }
  ],
  "materials": [
    {
      "doubleSided": true,
      "extensions": {
        "KHR_materials_specular": {
          "specularColorFactor": [
            1.0,
            1.0,
            1.0
          ],
          "specularFactor": 0.07771452255854494
        }
      },
      "name": "Whale_Sketch1",
      "normalTexture": {
        "index": 2
      },
      "pbrMetallicRoughness": {
        "baseColorTexture": {
          "index": 0
        },
        "metallicFactor": 0.0,
        "metallicRoughnessTexture": {
          "index": 1
        }
      }
    },
    {
      "doubleSided": true,
      "extensions": {
        "KHR_materials_specular": {
          "specularColorFactor": [
            1.0,
            1.0,
            1.0
          ],
          "specularFactor": 0.1569528592849045
        }
      },
      "name": "PM3D_Cone3D2",
      "normalTexture": {
        "index": 5
      },
      "pbrMetallicRoughness": {
        "baseColorTexture": {
          "index": 3
        },
        "metallicFactor": 0.0,
        "metallicRoughnessTexture": {
          "index": 4
        }
      }
    }
  ],
  "meshes": [
    {
      "name": "Whale_Sketch1.001_Whale_Sketch1_0",
      "primitives": [
        {
          "attributes": {
            "NORMAL": 1,
            "POSITION": 0,
            "TANGENT": 2,
            "TEXCOORD_0": 3,
            "TEXCOORD_1": 4
          },
          "indices": 5,
          "material": 0,
          "mode": 4
        }
      ]
    },
    {
      "name": "Whale_Sketch1.001_Whale_Sketch1_0",
      "primitives": [
        {
          "attributes": {
            "NORMAL": 7,
            "POSITION": 6,
            "TANGENT": 8,
            "TEXCOORD_0": 9,
            "TEXCOORD_1": 10
          },
          "indices": 11,
          "material": 0,
          "mode": 4
        }
      ]
    },
    {
      "name": "Whale_Sketch1.001_PM3D_Cone3D2_0",
      "primitives": [
        {
          "attributes": {
            "NORMAL": 13,
            "POSITION": 12,
            "TANGENT": 14,
            "TEXCOORD_0": 15,
            "TEXCOORD_1": 16
          },
          "indices": 17,
          "material": 1,
          "mode": 4
        }
      ]
    }
  ],
  "nodes": [
    {
      "children": [
        1
      ],
      "matrix": [
        0.3321525454521179,
        0.0,
        0.0,
        0.0,
        0.0,
        7.375268072975903e-17,
        -0.3321525454521179,
        0.0,
        0.0,
        0.3321525454521179,
        7.375268072975903e-17,
        0.0,
        0.0,
        0.0,
        0.0,
        1.0
      ],
      "name": "Sketchfab_model"
    },
    {
      "children": [
        2
      ],
      "matrix": [
        0.009999999776482582,
        0.0,
        0.0,
        0.0,
        0.0,
        0.0,
        0.009999999776482582,
        0.0,
        0.0,
        -0.009999999776482582,
        0.0,
        0.0,
        0.0,
        0.0,
        0.0,
        1.0
      ],
      "name": "5fa4381db36e47c283e703abff703c8b.fbx"
    },
    {
      "children": [
        3
      ],
      "name": "RootNode"
    },
    {
      "children": [
        4,
        5,
        6
      ],
      "matrix": [
        99.9992057731962,
        -0.3082818301560506,
        0.252600560487981,
        0.0,
        0.2507893599912384,
        -0.5864999174562118,
        -99.99797322157437,
        0.0,
        0.30975703678000627,
        99.99779724774267,
        -0.585722031913744,
        0.0,
        0.0,
        0.0,
        0.0,
        1.0
      ],
      "name": "Whale_Sketch1.001"
    },
    {
      "mesh": 0,
      "name": "Whale_Sketch1.001_Whale_Sketch1_0"
    },
    {
      "mesh": 1,
      "name": "Whale_Sketch1.001_Whale_Sketch1_0"
    },
    {
      "mesh": 2,
      "name": "Whale_Sketch1.001_PM3D_Cone3D2_0"
    }
  ],
  "samplers": [
    {
      "magFilter": 9729,
      "minFilter": 9987,
      "wrapS": 10497,
      "wrapT": 10497
    }
  ],
  "scene": 0,
  "scenes": [
    {
      "name": "Sketchfab_Scene",
      "nodes": [
        0
      ]
    }
  ],
  "textures": [
    {
      "sampler": 0,
      "source": 0
    },
    {
      "sampler": 0,
      "source": 1
    },
    {
      "sampler": 0,
      "source": 2
    },
    {
      "sampler": 0,
      "source": 3
    },
    {
      "sampler": 0,
      "source": 4
    },
    {
      "sampler": 0,
      "source": 5
    }
  ]
}
